<svg width="134" height="134" viewBox="0 0 134 134" fill="none" xmlns="http://www.w3.org/2000/svg">
<path d="M129.284 66.9973C131.354 64.5874 132.804 61.709 133.509 58.6118C134.214 55.5145 134.153 52.292 133.331 49.2237C132.509 46.1554 130.95 43.3341 128.791 41.0045C126.631 38.6749 123.936 36.9073 120.939 35.8551C121.526 32.7332 121.343 29.5152 120.405 26.4802C119.467 23.4452 117.802 20.685 115.556 18.4389C113.31 16.1928 110.549 14.5288 107.514 13.5911C104.479 12.6535 101.261 12.4705 98.1391 13.0582C97.0877 10.0603 95.3205 7.36435 92.9908 5.20441C90.6612 3.04447 87.8395 1.48581 84.7708 0.663775C81.7021 -0.158265 78.4791 -0.218841 75.3817 0.487304C72.2843 1.19345 69.4061 2.64497 66.9969 4.71585C64.587 2.6464 61.7086 1.19618 58.6113 0.491013C55.514 -0.214157 52.2915 -0.152983 49.2232 0.669224C46.155 1.49143 43.3337 3.04984 41.004 5.20926C38.6744 7.36868 36.9069 10.0639 35.8547 13.0611C32.733 12.4744 29.5153 12.6581 26.4807 13.5964C23.4461 14.5347 20.6863 16.1992 18.4405 18.4455C16.1948 20.6918 14.531 23.452 13.5935 26.4869C12.656 29.5217 12.4731 32.7394 13.0606 35.8609C10.0634 36.9131 7.3682 38.6807 5.20878 41.0103C3.04936 43.3399 1.49094 46.1613 0.668734 49.2295C-0.153474 52.2978 -0.214656 55.5203 0.490513 58.6176C1.19568 61.7148 2.64593 64.5932 4.71538 67.0031C2.64529 69.413 1.19461 72.2916 0.489237 75.3892C-0.216133 78.4867 -0.154897 81.7097 0.66767 84.7782C1.49024 87.8467 3.04926 90.6682 5.20942 92.9976C7.36958 95.327 10.0656 97.094 13.0635 98.1453C12.4755 101.267 12.6582 104.485 13.5958 107.52C14.5335 110.555 16.1977 113.315 18.4439 115.561C20.6902 117.807 23.4507 119.471 26.4858 120.408C29.5209 121.345 32.7389 121.528 35.8605 120.939C36.9127 123.937 38.6802 126.632 41.0098 128.791C43.3395 130.951 46.1608 132.509 49.229 133.331C52.2973 134.153 55.5198 134.215 58.6171 133.509C61.7143 132.804 64.5928 131.354 67.0027 129.285C69.4125 131.355 72.2912 132.805 75.3887 133.511C78.4863 134.216 81.7092 134.155 84.7777 133.332C87.8463 132.51 90.6677 130.951 92.9971 128.791C95.3266 126.63 97.0936 123.934 98.1449 120.936C101.267 121.524 104.485 121.341 107.52 120.404C110.555 119.466 113.315 117.802 115.561 115.556C117.807 113.31 119.472 110.549 120.409 107.514C121.347 104.479 121.53 101.261 120.942 98.1395C123.939 97.0876 126.635 95.3201 128.794 92.9904C130.954 90.6607 132.512 87.8391 133.334 84.7707C134.156 81.7022 134.217 78.4795 133.511 75.3823C132.805 72.285 131.354 69.4068 129.284 66.9973Z" fill="#331180"/>
<path d="M54.974 92.5729L36.3554 73.966C35.6488 73.2582 35.252 72.299 35.252 71.2989C35.252 70.2988 35.6488 69.3396 36.3554 68.6319L38.6174 66.367C39.3252 65.6604 40.2844 65.2635 41.2845 65.2635C42.2846 65.2635 43.2438 65.6604 43.9515 66.367L57.4857 79.8924L89.3596 46.0208C90.0455 45.293 90.9921 44.8672 91.9916 44.8367C92.9911 44.8062 93.9619 45.1736 94.6908 45.8582L97.0138 48.0505C97.7424 48.7364 98.1688 49.6836 98.1993 50.6838C98.2298 51.6841 97.8618 52.6555 97.1764 53.3846L60.3981 92.4887C60.0518 92.8578 59.6349 93.1534 59.172 93.3581C58.7092 93.5628 58.2099 93.6723 57.7039 93.6802C57.1979 93.688 56.6954 93.5941 56.2264 93.4038C55.7575 93.2136 55.3316 92.931 54.974 92.5729Z" fill="white"/>
</svg>
